<svg width="808" height="574" viewBox="0 0 808 574" fill="none" xmlns="http://www.w3.org/2000/svg">
<g clip-path="url(#clip0_1_44)">
<path d="M780.401 393.258L554.563 163.334H514.183L333.024 315.742L239.543 301.042L166.779 356.622L209.587 419.026L130.225 483.664L107.21 559.194C246.164 616.702 276.665 488.134 276.665 488.134L320.717 555.8C344.407 545.654 357.994 511.821 357.994 511.821L388.518 555.8C398.693 552.418 408.856 538.89 408.856 538.89C419.02 552.418 456.308 555.8 456.308 555.8H727.394L735.875 553.601C807.514 535.011 832.223 446.024 780.401 393.258Z" fill="#FED301"/>
<path d="M215.663 163.334L15.7066 430.591C29.2692 450.896 73.321 464.424 73.321 464.424L212.276 352.779L438.517 163.311L215.663 163.334Z" fill="#FED301"/>
<path d="M291.91 435.688C291.91 435.688 280.728 475.789 276.665 488.135" stroke="black" stroke-width="2" stroke-miterlimit="10"/>
<path d="M282.564 468.576C282.564 468.576 303.329 458.855 320.125 483.571C336.921 508.286 339.575 514.033 339.575 514.033" stroke="black" stroke-width="2" stroke-miterlimit="10"/>
<path d="M146.974 469.959C146.974 469.959 164.09 483.582 164.09 501.675C164.09 519.768 152.15 544.921 152.15 544.921" stroke="black" stroke-width="2" stroke-miterlimit="10"/>
<path d="M373.179 435.688V473.755C369.309 486.886 364.226 499.629 357.994 511.821" stroke="black" stroke-width="2" stroke-miterlimit="10"/>
<path d="M373.179 469.959H377.597L403.739 507.434" stroke="black" stroke-width="2" stroke-miterlimit="10"/>
<path d="M438.552 435.688V480.046C438.552 480.046 435.65 512.555 408.833 538.89" stroke="black" stroke-width="2" stroke-miterlimit="10"/>
<path d="M633.747 0L439.784 162.4L244.696 323.121H322.755L515.415 162.4L664.248 37.215L633.747 0Z" fill="#BF292B"/>
<path d="M37.2765 493.977L0 558.261L67.7775 534.61L131.48 482.648L231.559 399.172C219.785 383.396 213.958 365.327 211.115 350.758L37.2765 493.977Z" fill="#BF292B"/>
<path d="M75.4531 351.691L82.6431 359.118C88.5374 365.215 92.2153 373.108 93.0891 381.536C93.963 389.965 91.9825 398.443 87.464 405.616L70.1584 433.11" stroke="black" stroke-width="2" stroke-miterlimit="10"/>
<path d="M532.531 324.02H207.182C207.142 333.304 208.051 342.568 209.895 351.668C212.749 366.237 218.577 384.294 230.339 400.07C242.883 416.886 262.167 431.1 291.934 435.664H433.838C440.247 435.668 446.394 438.212 450.925 442.738C455.456 447.264 458.002 453.401 458.002 459.8V463.691C458 472.452 459.727 481.128 463.084 489.223C466.442 497.317 471.363 504.673 477.568 510.868C483.773 517.064 491.139 521.979 499.247 525.332C507.354 528.685 516.044 530.411 524.82 530.411H600.308" fill="#FED301"/>
<path d="M532.531 324.02H207.182C207.142 333.304 208.051 342.568 209.895 351.668C212.749 366.237 218.577 384.294 230.339 400.07C242.883 416.886 262.167 431.1 291.934 435.664H433.838C440.247 435.668 446.394 438.212 450.925 442.738C455.456 447.264 458.002 453.401 458.002 459.8V463.691C458 472.452 459.727 481.128 463.084 489.223C466.442 497.317 471.363 504.673 477.568 510.868C483.773 517.064 491.139 521.979 499.247 525.332C507.354 528.685 516.044 530.411 524.82 530.411H600.308" stroke="black" stroke-width="2" stroke-miterlimit="10"/>
<path d="M298.496 324.02V330.855C298.496 339.399 295.097 347.594 289.046 353.637C282.995 359.68 274.788 363.076 266.23 363.079H227.141" stroke="black" stroke-width="2" stroke-miterlimit="10"/>
</g>
<defs>
<clipPath id="clip0_1_44">
<rect width="808" height="574" fill="white"/>
</clipPath>
</defs>
</svg>
